<?xml version="1.0" standalone="no"?><!DOCTYPE svg PUBLIC "-//W3C//DTD SVG 1.1//EN" "http://www.w3.org/Graphics/SVG/1.1/DTD/svg11.dtd"><svg t="1608045058199" class="icon" viewBox="0 0 1024 1024" version="1.1" xmlns="http://www.w3.org/2000/svg" p-id="15596" xmlns:xlink="http://www.w3.org/1999/xlink" width="128" height="128"><defs><style type="text/css"></style></defs><path d="M832 576A320 320 0 1 1 512 256h128v160l192-192-192-192v160h-128a384 384 0 1 0 384 384z" p-id="15597" fill="#2c2c2c"></path><path d="M594.56 498.56h-110.4L480 580.8a154.56 154.56 0 0 1 8.32-14.4 50.88 50.88 0 0 1 10.56-11.2 48.96 48.96 0 0 1 14.08-7.36 64 64 0 0 1 19.2-2.56 81.28 81.28 0 0 1 29.44 5.12 65.92 65.92 0 0 1 23.68 15.36 72.96 72.96 0 0 1 16 24.64 87.36 87.36 0 0 1 5.76 32 91.84 91.84 0 0 1-6.08 34.24 75.52 75.52 0 0 1-17.6 26.88 78.08 78.08 0 0 1-28.48 17.6 103.36 103.36 0 0 1-38.72 6.4 121.28 121.28 0 0 1-30.08-3.52 96 96 0 0 1-23.68-10.24 78.4 78.4 0 0 1-17.6-14.4 132.16 132.16 0 0 1-13.12-17.6l33.92-25.92 8.64 13.12a58.24 58.24 0 0 0 10.88 10.88 50.88 50.88 0 0 0 13.76 7.04 48.64 48.64 0 0 0 17.6 2.56 41.28 41.28 0 0 0 32-11.52 45.12 45.12 0 0 0 10.56-32v-1.92a37.76 37.76 0 0 0-40.96-40.64 46.08 46.08 0 0 0-24.64 5.76 62.08 62.08 0 0 0-15.36 12.48l-38.08-5.44 9.28-137.92h144.64z" p-id="15598" fill="#2c2c2c"></path></svg>