<?xml version="1.0" standalone="no"?><!DOCTYPE svg PUBLIC "-//W3C//DTD SVG 1.1//EN" "http://www.w3.org/Graphics/SVG/1.1/DTD/svg11.dtd"><svg t="1608128726016" class="icon" viewBox="0 0 1024 1024" version="1.1" xmlns="http://www.w3.org/2000/svg" p-id="20201" width="128" height="128" xmlns:xlink="http://www.w3.org/1999/xlink"><defs><style type="text/css"></style></defs><path d="M992 397.12L946.88 352 832 466.88 717.12 352 672 397.12 786.88 512 672 626.88 717.12 672 832 557.12 946.88 672 992 626.88 877.12 512 992 397.12zM576 960a32 32 0 0 1-22.72-9.6L309.44 704H96a32 32 0 0 1-32-32V352a32 32 0 0 1 32-32h213.44l243.84-246.4a32 32 0 0 1 45.12 0 32 32 0 0 1 9.6 22.4v832a32 32 0 0 1-32 32z" p-id="20202"></path></svg>