<?xml version="1.0" standalone="no"?><!DOCTYPE svg PUBLIC "-//W3C//DTD SVG 1.1//EN" "http://www.w3.org/Graphics/SVG/1.1/DTD/svg11.dtd"><svg t="1608044947141" class="icon" viewBox="0 0 1327 1024" version="1.1" xmlns="http://www.w3.org/2000/svg" p-id="13158" xmlns:xlink="http://www.w3.org/1999/xlink" width="165.875" height="128"><defs><style type="text/css"></style></defs><path d="M872.296296 170.666667H455.111111C267.377778 170.666667 113.777778 324.266667 113.777778 512s153.6 341.333333 341.333333 341.333333h417.185185c187.733333 0 341.333333-153.6 341.333334-341.333333S1060.02963 170.666667 872.296296 170.666667z m0 625.777777H455.111111c-157.392593 0-284.444444-127.051852-284.444444-284.444444s127.051852-284.444444 284.444444-284.444444h417.185185c157.392593 0 284.444444 127.051852 284.444445 284.444444s-127.051852 284.444444-284.444445 284.444444z" p-id="13159" fill="#2c2c2c"></path><path d="M593.540741 396.325926v51.2l51.2-34.133333v271.17037h45.511111V350.814815h-34.133333zM766.103704 629.57037c-7.585185 0-13.274074 1.896296-18.962963 7.585186-3.792593 3.792593-7.585185 11.377778-7.585185 18.962963s1.896296 13.274074 7.585185 18.962962c3.792593 3.792593 11.377778 7.585185 18.962963 7.585186s13.274074-1.896296 18.962963-7.585186c3.792593-3.792593 7.585185-11.377778 7.585185-18.962962s-1.896296-13.274074-7.585185-18.962963c-5.688889-3.792593-11.377778-7.585185-18.962963-7.585186zM927.288889 347.022222c-26.548148 0-49.303704 7.585185-64.474074 24.651852-15.17037 17.066667-24.651852 39.822222-24.651852 68.266667v155.496296c0 28.444444 7.585185 51.2 24.651852 68.266667s37.925926 24.651852 64.474074 24.651852 49.303704-7.585185 64.474074-24.651852 24.651852-39.822222 24.651852-68.266667v-155.496296c0-28.444444-7.585185-53.096296-24.651852-68.266667-17.066667-17.066667-37.925926-24.651852-64.474074-24.651852z m43.614815 248.414815c0 32.237037-15.17037 49.303704-43.614815 49.303704-28.444444 0-43.614815-17.066667-43.614815-49.303704v-155.496296c0-34.133333 15.17037-51.2 43.614815-51.2 28.444444 0 43.614815 17.066667 43.614815 51.2v155.496296zM489.244444 400.118519c-13.274074-9.481481-30.340741-7.585185-39.822222 5.688888l-47.407407 60.681482-47.407408-60.681482c-9.481481-13.274074-28.444444-15.17037-39.822222-5.688888-13.274074 9.481481-15.17037 28.444444-5.688889 39.822222l56.888889 72.059259-56.888889 72.059259c-9.481481 13.274074-7.585185 30.340741 5.688889 39.822222s30.340741 7.585185 39.822222-5.688888l47.407408-60.681482 47.407407 60.681482c9.481481 13.274074 28.444444 15.17037 39.822222 5.688888 13.274074-9.481481 15.17037-28.444444 5.688889-39.822222l-56.888889-72.059259 56.888889-72.059259c9.481481-11.377778 7.585185-30.340741-5.688889-39.822222z" p-id="13160" fill="#2c2c2c"></path></svg>