<?xml version="1.0" standalone="no"?><!DOCTYPE svg PUBLIC "-//W3C//DTD SVG 1.1//EN" "http://www.w3.org/Graphics/SVG/1.1/DTD/svg11.dtd"><svg t="1608044973225" class="icon" viewBox="0 0 1327 1024" version="1.1" xmlns="http://www.w3.org/2000/svg" p-id="13532" xmlns:xlink="http://www.w3.org/1999/xlink" width="165.875" height="128"><defs><style type="text/css"></style></defs><path d="M891.259259 170.666667H417.185185C229.451852 170.666667 75.851852 324.266667 75.851852 512s153.6 341.333333 341.333333 341.333333h474.074074c187.733333 0 341.333333-153.6 341.333334-341.333333S1078.992593 170.666667 891.259259 170.666667z m0 625.777777H417.185185c-157.392593 0-284.444444-127.051852-284.444444-284.444444s127.051852-284.444444 284.444444-284.444444h474.074074c157.392593 0 284.444444 127.051852 284.444445 284.444444s-127.051852 284.444444-284.444445 284.444444z" p-id="13533"></path><path d="M618.192593 589.748148c5.688889-7.585185 11.377778-15.17037 18.962963-24.651852l11.377777-11.377777 11.377778-13.274075c18.962963-20.859259 34.133333-37.925926 41.718519-53.096296 13.274074-20.859259 18.962963-41.718519 18.962963-60.681481 0-22.755556-7.585185-41.718519-20.85926-56.888889-15.17037-17.066667-36.02963-24.651852-62.577777-24.651852-24.651852 0-43.614815 7.585185-58.785186 22.755555-15.17037 15.17037-22.755556 37.925926-24.651851 66.370371h43.614814c0-30.340741 13.274074-45.511111 37.925926-45.511111 11.377778 0 22.755556 3.792593 28.444445 11.377778 5.688889 7.585185 9.481481 15.17037 9.481481 26.548148 0 15.17037-5.688889 32.237037-18.962963 49.303703-3.792593 7.585185-11.377778 15.17037-18.962963 24.651852l-9.481481 13.274074-11.377778 13.274074c-41.718519 45.511111-62.577778 87.22963-62.577778 127.051852v32.237037h172.562963v-43.614815h-125.155555c0-17.066667 7.585185-34.133333 18.962963-53.096296zM788.859259 629.57037c-7.585185 0-13.274074 1.896296-18.962963 7.585186-3.792593 3.792593-7.585185 11.377778-7.585185 18.962963s1.896296 13.274074 7.585185 18.962962c3.792593 3.792593 11.377778 7.585185 18.962963 7.585186s13.274074-1.896296 18.962963-7.585186c3.792593-3.792593 7.585185-11.377778 7.585185-18.962962s-1.896296-13.274074-7.585185-18.962963c-5.688889-3.792593-13.274074-7.585185-18.962963-7.585186zM948.148148 347.022222c-26.548148 0-49.303704 7.585185-64.474074 24.651852-15.17037 17.066667-24.651852 39.822222-24.651852 68.266667v155.496296c0 28.444444 7.585185 51.2 24.651852 68.266667s37.925926 24.651852 64.474074 24.651852 49.303704-7.585185 64.474074-24.651852c15.17037-17.066667 24.651852-39.822222 24.651852-68.266667v-155.496296c0-28.444444-7.585185-53.096296-24.651852-68.266667-15.17037-17.066667-37.925926-24.651852-64.474074-24.651852z m43.614815 248.414815c0 32.237037-15.17037 49.303704-43.614815 49.303704-28.444444 0-43.614815-17.066667-43.614815-49.303704v-155.496296c0-34.133333 15.17037-51.2 43.614815-51.2 28.444444 0 43.614815 17.066667 43.614815 51.2v155.496296zM451.318519 400.118519c-13.274074-9.481481-30.340741-7.585185-39.822223 5.688888l-47.407407 60.681482-47.407408-60.681482c-9.481481-13.274074-28.444444-15.17037-39.822222-5.688888-13.274074 9.481481-15.17037 28.444444-5.688889 39.822222l56.888889 72.059259-56.888889 72.059259c-9.481481 13.274074-7.585185 30.340741 5.688889 39.822222s30.340741 7.585185 39.822222-5.688888l47.407408-60.681482 47.407407 60.681482c9.481481 13.274074 28.444444 15.17037 39.822223 5.688888 13.274074-9.481481 15.17037-28.444444 5.688888-39.822222l-56.888888-72.059259 56.888888-72.059259c9.481481-11.377778 7.585185-30.340741-5.688888-39.822222z" p-id="13534"></path></svg>