<?xml version="1.0" standalone="no"?><!DOCTYPE svg PUBLIC "-//W3C//DTD SVG 1.1//EN" "http://www.w3.org/Graphics/SVG/1.1/DTD/svg11.dtd"><svg t="1608043821446" class="icon" viewBox="0 0 1327 1024" version="1.1" xmlns="http://www.w3.org/2000/svg" p-id="12235" xmlns:xlink="http://www.w3.org/1999/xlink" width="259.1796875" height="200"><defs><style type="text/css"></style></defs><path d="M891.259259 170.666667H417.185185C229.451852 170.666667 75.851852 324.266667 75.851852 512s153.6 341.333333 341.333333 341.333333h474.074074c187.733333 0 341.333333-153.6 341.333334-341.333333S1078.992593 170.666667 891.259259 170.666667z m0 625.777777H417.185185c-157.392593 0-284.444444-127.051852-284.444444-284.444444s127.051852-284.444444 284.444444-284.444444h474.074074c157.392593 0 284.444444 127.051852 284.444445 284.444444s-127.051852 284.444444-284.444445 284.444444z" p-id="12236" fill="#2c2c2c"></path><path d="M644.740741 347.022222c-26.548148 0-49.303704 7.585185-64.474074 24.651852-15.17037 17.066667-24.651852 39.822222-24.651852 68.266667v155.496296c0 28.444444 7.585185 51.2 24.651852 68.266667s37.925926 24.651852 64.474074 24.651852 49.303704-7.585185 64.474074-24.651852 24.651852-39.822222 24.651852-68.266667v-155.496296c0-28.444444-7.585185-53.096296-24.651852-68.266667-15.17037-17.066667-37.925926-24.651852-64.474074-24.651852z m43.614815 248.414815c0 32.237037-15.17037 49.303704-43.614815 49.303704-28.444444 0-43.614815-17.066667-43.614815-49.303704v-155.496296c0-34.133333 15.17037-51.2 43.614815-51.2 28.444444 0 43.614815 17.066667 43.614815 51.2v155.496296zM961.422222 458.903704c-17.066667 0-30.340741 3.792593-41.718518 13.274074v-77.748148h106.192592v-41.718519h-149.807407v182.044445h43.614815c5.688889-20.859259 17.066667-32.237037 36.029629-32.237037 22.755556 0 34.133333 17.066667 34.133334 49.303703V587.851852c0 37.925926-11.377778 56.888889-36.02963 56.888889-22.755556 0-36.02963-15.17037-36.02963-45.511111H872.296296c0 28.444444 9.481481 49.303704 22.755556 66.37037s34.133333 24.651852 58.785185 24.651852c26.548148 0 45.511111-7.585185 60.681482-24.651852 15.17037-17.066667 22.755556-43.614815 22.755555-75.851852v-37.925926c0-28.444444-7.585185-51.2-20.859259-68.266666-15.17037-17.066667-32.237037-24.651852-54.992593-24.651852zM800.237037 629.57037c-7.585185 0-13.274074 1.896296-18.962963 7.585186-3.792593 3.792593-7.585185 11.377778-7.585185 18.962963s1.896296 13.274074 7.585185 18.962962c3.792593 3.792593 11.377778 7.585185 18.962963 7.585186s13.274074-1.896296 18.962963-7.585186c3.792593-3.792593 7.585185-11.377778 7.585185-18.962962s-1.896296-13.274074-7.585185-18.962963c-5.688889-3.792593-11.377778-7.585185-18.962963-7.585186zM451.318519 400.118519c-13.274074-9.481481-30.340741-7.585185-39.822223 5.688888l-47.407407 60.681482-47.407408-60.681482c-9.481481-13.274074-28.444444-15.17037-39.822222-5.688888-13.274074 9.481481-15.17037 28.444444-5.688889 39.822222l56.888889 72.059259-56.888889 72.059259c-9.481481 13.274074-7.585185 30.340741 5.688889 39.822222s30.340741 7.585185 39.822222-5.688888l47.407408-60.681482 47.407407 60.681482c9.481481 13.274074 28.444444 15.17037 39.822223 5.688888 13.274074-9.481481 15.17037-28.444444 5.688888-39.822222l-56.888888-72.059259 56.888888-72.059259c9.481481-11.377778 7.585185-30.340741-5.688888-39.822222z" p-id="12237" fill="#2c2c2c"></path></svg>