<?xml version="1.0" standalone="no"?><!DOCTYPE svg PUBLIC "-//W3C//DTD SVG 1.1//EN" "http://www.w3.org/Graphics/SVG/1.1/DTD/svg11.dtd"><svg t="1608044961881" class="icon" viewBox="0 0 1327 1024" version="1.1" xmlns="http://www.w3.org/2000/svg" p-id="13345" xmlns:xlink="http://www.w3.org/1999/xlink" width="165.875" height="128"><defs><style type="text/css"></style></defs><path d="M853.333333 170.666667H455.111111C267.377778 170.666667 113.777778 324.266667 113.777778 512s153.6 341.333333 341.333333 341.333333h398.222222c187.733333 0 341.333333-153.6 341.333334-341.333333S1041.066667 170.666667 853.333333 170.666667z m0 625.777777H455.111111c-157.392593 0-284.444444-127.051852-284.444444-284.444444s127.051852-284.444444 284.444444-284.444444h398.222222c157.392593 0 284.444444 127.051852 284.444445 284.444444s-127.051852 284.444444-284.444445 284.444444z" p-id="13346" fill="#2c2c2c"></path><path d="M587.851852 396.325926v51.2l49.303704-34.133333v271.17037h47.407407V350.814815h-34.133333zM923.496296 458.903704c-17.066667 0-30.340741 3.792593-41.718518 13.274074v-77.748148H986.074074v-41.718519h-149.807407v182.044445h43.614814c5.688889-20.859259 17.066667-32.237037 36.02963-32.237037 22.755556 0 34.133333 17.066667 34.133333 49.303703V587.851852c0 37.925926-11.377778 56.888889-36.029629 56.888889-22.755556 0-36.02963-15.17037-36.02963-45.511111h-45.511111c0 28.444444 9.481481 49.303704 22.755556 66.37037s34.133333 24.651852 58.785185 24.651852c26.548148 0 45.511111-7.585185 60.681481-24.651852 15.17037-17.066667 22.755556-43.614815 22.755556-75.851852v-37.925926c0-28.444444-7.585185-51.2-20.859259-68.266666-13.274074-17.066667-32.237037-24.651852-53.096297-24.651852zM760.414815 629.57037c-7.585185 0-13.274074 1.896296-18.962963 7.585186-3.792593 3.792593-7.585185 11.377778-7.585185 18.962963s1.896296 13.274074 7.585185 18.962962c3.792593 3.792593 11.377778 7.585185 18.962963 7.585186s13.274074-1.896296 18.962963-7.585186c3.792593-3.792593 7.585185-11.377778 7.585185-18.962962s-1.896296-13.274074-7.585185-18.962963c-5.688889-3.792593-11.377778-7.585185-18.962963-7.585186zM489.244444 400.118519c-13.274074-9.481481-30.340741-7.585185-39.822222 5.688888l-47.407407 60.681482-47.407408-60.681482c-9.481481-13.274074-28.444444-15.17037-39.822222-5.688888-13.274074 9.481481-15.17037 28.444444-5.688889 39.822222l56.888889 72.059259-56.888889 72.059259c-9.481481 13.274074-7.585185 30.340741 5.688889 39.822222s30.340741 7.585185 39.822222-5.688888l47.407408-60.681482 47.407407 60.681482c9.481481 13.274074 28.444444 15.17037 39.822222 5.688888 13.274074-9.481481 15.17037-28.444444 5.688889-39.822222l-56.888889-72.059259 56.888889-72.059259c9.481481-11.377778 7.585185-30.340741-5.688889-39.822222z" p-id="13347" fill="#2c2c2c"></path></svg>