<?xml version="1.0" standalone="no"?><!DOCTYPE svg PUBLIC "-//W3C//DTD SVG 1.1//EN" "http://www.w3.org/Graphics/SVG/1.1/DTD/svg11.dtd"><svg t="1608128786757" class="icon" viewBox="0 0 1024 1024" version="1.1" xmlns="http://www.w3.org/2000/svg" p-id="20437" xmlns:xlink="http://www.w3.org/1999/xlink" width="128" height="128"><defs><style type="text/css"></style></defs><path d="M869.12 258.56l-48.96 41.28a320 320 0 0 1-9.28 423.36l47.04 44.8a384 384 0 0 0 11.2-508.16z" p-id="20438"></path><path d="M690.56 384a192 192 0 0 1-5.76 254.08l47.04 43.52a256 256 0 0 0 7.36-338.88zM576 960a32 32 0 0 1-22.72-9.6L309.44 704H96a32 32 0 0 1-32-32V352a32 32 0 0 1 32-32h213.44l243.84-246.4a32 32 0 0 1 45.12 0 32 32 0 0 1 9.6 22.4v832a32 32 0 0 1-32 32z" p-id="20439"></path></svg>